<?xml version="1.0" encoding="UTF-8"?>
<svg viewBox="0 0 369.43 370.1" xmlns="http://www.w3.org/2000/svg" xmlns:xlink="http://www.w3.org/1999/xlink">
 <defs>
  <linearGradient id="g" x1=".44096" x2=".6669" y1=".63458" y2=".63458">
   <stop stop-color="#ffb142" offset="0"/>
   <stop stop-color="#c87600" offset="1"/>
  </linearGradient>
  <linearGradient id="a">
   <stop stop-color="#a5a5a5" offset="0"/>
   <stop offset="1"/>
  </linearGradient>
  <radialGradient id="j" cx="414.68" cy="-8.8805" r="123.55" gradientTransform="matrix(-5.8291e-6 .89418 -1.9479 1.1251e-8 -12.273 -117.03)" gradientUnits="userSpaceOnUse">
   <stop stop-color="#ffb142" offset="0"/>
   <stop stop-color="#ffb141" offset=".88679"/>
   <stop stop-color="#c87600" offset="1"/>
  </radialGradient>
  <radialGradient id="h" cx="488.95" cy="582.85" r="167.56" gradientTransform="matrix(0 -1.4798 1.3255 -3.8491e-6 -810.49 783.54)" gradientUnits="userSpaceOnUse" xlink:href="#a"/>
  <radialGradient id="k" cx="347.68" cy="652.28" r="59.255" gradientTransform="matrix(2.8422e-8 -2.2818 -2.0268 0 1413.4 904.48)" gradientUnits="userSpaceOnUse" xlink:href="#a"/>
  <radialGradient id="i" cx="355.12" cy="615.6" r="59.255" gradientTransform="matrix(-2.8422e-8 -2.2818 2.0268 0 -1400 904.48)" gradientUnits="userSpaceOnUse" xlink:href="#a"/>
 </defs>
 <g stroke-width="5">
  <g fill-rule="evenodd">
   <path d="m148.24 307.14c-48.083 4.9497-103.23 43.858-81.312 52.344 21.92 8.4853 85.542 12.024 97.562 2.125 6.177-5.087 17.229-17.827 18.531-29.781 1.3042 11.953 12.324 24.695 18.5 29.781 12.021 9.8995 75.673 6.3603 97.594-2.125 21.92-8.4853-33.229-47.394-81.312-52.344-24.76 2.3865-33.666 10.706-34.781 20.25-1.1158-9.5442-10.022-17.864-34.781-20.25z" fill="url(#j)" stroke="#000"/>
   <path d="m148.25 307.16c-23.6 2.4294-48.881 13.04-65.938 24.219 25.832 11.947 57.418 19.309 91.656 20.156 4.3872-5.7724 8.3176-12.85 9.0625-19.688 0.73903 6.7733 4.5772 13.788 8.9062 19.531 33.676-1.4258 64.607-9.1457 89.781-21.312-16.995-10.691-41.222-20.571-63.906-22.906-24.76 2.3865-33.666 10.706-34.781 20.25-1.1158-9.5442-10.022-17.864-34.781-20.25z" fill-opacity=".314"/>
  </g>
  <g stroke="#000" stroke-linecap="round">
   <path d="m346.17 168.06a165.56 165.56 0 1 1 -331.13 0 165.56 165.56 0 1 1 331.13 0z" fill="url(#h)"/>
   <path d="m146.62 57.892c-22.935 0-41.562 21.434-41.562 47.844s18.628 47.844 41.562 47.844c13.478 0 25.439-7.4105 33.031-18.875 7.5922 11.473 19.579 18.875 33.062 18.875 22.935 0 41.562-21.434 41.562-47.844s-18.628-47.844-41.562-47.844c-13.482 0-25.47 7.4045-33.062 18.875-7.5928-11.462-19.555-18.875-33.031-18.875z" fill="#fff"/>
  </g>
 </g>
 <path d="m262.45 250.84a80.264 80.264 0 1 1 -160.53 0 80.264 80.264 0 1 1 160.53 0z" fill="#fff" stroke="#000" stroke-linecap="round" stroke-width="4.412"/>
 <g stroke-width="5">
  <g fill-opacity=".314">
   <path d="m339.66 122.03c0.33606 4.3048 0.53125 8.6406 0.53125 13.031 0 91.391-74.202 165.56-165.59 165.56-75.42 0-139.07-50.513-159.03-119.53 6.6593 85.301 78.03 152.53 165.03 152.53 91.391 0 165.59-74.171 165.59-165.56 0-15.971-2.3048-31.416-6.5312-46.031z" stroke-linecap="round"/>
   <path d="m181.64 140.41c-14.479 0-30.217 13.186-29.588 21.514 0.62952 8.3281 25.81 43.029 31.476 43.029 5.6657 0 27.699-34.006 27.07-43.723-0.62955-9.7161-19.515-21.514-28.958-20.82z" fill-rule="evenodd"/>
  </g>
  <g stroke="#000">
   <path d="m179.35 132.07c-14.479 0-30.217 11.961-29.588 19.515 0.62952 7.5543 25.81 39.03 31.476 39.03 5.6657 0 27.699-30.847 27.069-39.66-0.62952-8.8133-19.515-19.515-28.958-18.886z" fill="url(#g)" fill-rule="evenodd"/>
   <g stroke-linecap="round">
    <path d="m172.38 114.16a10.387 10.387 0 1 1 -20.774 0 10.387 10.387 0 1 1 20.774 0z"/>
    <path d="m209.57 114.16a10.387 10.387 0 1 1 -20.774 0 10.387 10.387 0 1 1 20.774 0z"/>
   </g>
   <g fill-rule="evenodd">
    <path d="m55.737 131.04c48.111 17.3-14.163 94.143 37.819 161.19 9.6084 12.393-57.868 2.0908-81.723-66.585-23.198-66.786-1.1324-107.54 43.904-94.607z" fill="#fff"/>
    <path d="m55.737 131.04c48.111 17.3-42.588 102.12 37.819 161.19 22.626 16.622-57.868 2.0908-81.723-66.585-23.198-66.786-1.1324-107.54 43.904-94.607z" fill="url(#i)"/>
    <path d="m313.69 131.04c-48.111 17.3 14.163 94.143-37.819 161.19-9.6084 12.393 57.868 2.0908 81.723-66.585 23.198-66.786 1.1323-107.54-43.904-94.607z" fill="#fff"/>
    <path d="m313.69 131.04c-48.111 17.3 42.588 102.12-37.819 161.19-22.626 16.622 57.868 2.0908 81.723-66.585 23.198-66.786 1.1323-107.54-43.904-94.607z" fill="url(#k)"/>
   </g>
  </g>
 </g>
</svg>
