<?xml version="1.0" encoding="UTF-8"?>
<svg version="1.0" viewBox="0 0 638.11 546.17" xmlns="http://www.w3.org/2000/svg">
 <g transform="translate(-36.172 -223.63)">
  <g fill-rule="evenodd">
   <g stroke="#000">
    <g fill="#fff" stroke-linecap="round" stroke-linejoin="round">
     <path transform="matrix(.59414 0 0 .61217 586.8 323.81)" d="m-358.26 101.72a6.0342 5.517 0 1 1 -12.068 0 6.0342 5.517 0 1 1 12.068 0z" stroke-width="2.5"/>
     <path d="m546.91 343.06c-0.75596 0.01732-1.5244 0.07118-2.2837 0.13391-4.7729 0.39433-9.377 1.7201-13.795 3.8835-0.04072 0.01803-0.08954 0.05714-0.12997 0.07652-0.00312 0.00139-0.01542-0.00129-0.01856 0-0.02474 0.01222-0.04955 0.02598-0.07427 0.03826-9.4342 3.8834-16.7 10.607-21.519 19.226-17.55 24.09-28.174 64.361-26.346 108.97 2.8644 69.908 35.236 124.15 72.262 121.1 34.45-2.8462 60.851-54.31 62.05-117.77 0.40803-0.31601 0.81167-0.64586 1.2068-0.97565l0.4642 0.8991c0.29766 1.5335 0.57587 2.326 0.85407 2.6017 0.0034 0.0032 0.01517 0.01607 0.01857 0.01913 0.00341 0.0029 0.01516 0.01637 0.01857 0.01913 0.00341 0.0026 0.01514 0.01668 0.01856 0.01913 0.00686 0.0046 0.03027 0.01512 0.03714 0.01913 0.01032 0.00557 0.02675 0.01486 0.03713 0.01913 0.00347 0.00128 0.0151-0.00114 0.01857 0 0.00696 0.00199 0.03015 0.0177 0.03713 0.01913 0.0035 5.7e-4 0.01506-4.4e-4 0.01857 0 0.00352 2.9e-4 0.01504-1.6e-4 0.01857 0 0.00706 4e-5 0.03004 4.9e-4 0.03713 0 0.00356-3.9e-4 0.015 5.1e-4 0.01857 0 0.01429-0.0026 0.04126-0.01445 0.0557-0.01913 0.01448-0.0052 0.04106-0.01191 0.0557-0.01913 0.00367-0.00193 0.01488-0.01708 0.01857-0.01913 0.49467-0.29174 1.0924-1.6783 1.9866-3.2139 1.1704-2.0098 1.4303-8.1875 5.403-6.1408 1.7272 0.88978 5.403 4.5208 5.403-0.55478 0-1.6425 0.32835-11.278 0.53844-11.689 1.3137 0.27071 3.2492 1.5517 3.2492-2.2382 0-3.5196-1.7276-6.6719-1.0769-10.024 1.0085-5.1954 4.5516-2.077 5.2916-1.9896 0.00323 2.7e-4 0.01545-1.4e-4 0.01856 0 3e-3 2e-5 0.01569 1.2e-4 0.01857 0 0.00276-2.5e-4 0.01592 3.9e-4 0.01857 0 0.0024-6.6e-4 0.01629-0.01832 0.01856-0.01913 0.00216-9.5e-4 0.01654 0.0011 0.01857 0 0.00165-0.00154 0.01705-0.01743 0.01857-0.01913 0.00125-0.00201-0.00113-0.01695 0-0.01913 0.00198-0.00467 0.01712-0.0138 0.01856-0.01913 5.9e-4 -0.00283-4.5e-4 -0.01612 0-0.01913 3.2e-4 -0.00317-1.7e-4 -0.01577 0-0.01913 4e-5 -0.00353 1.1e-4 -0.01542 0-0.01913-4.9e-4 -0.00779 0.00107-0.02973 0-0.03826-0.00203-0.01335-0.01521-0.04231-0.01856-0.05739-0.64448-2.6561-1.0047-7.6384-2.1538-10.598-0.67236-1.7319-2.1723-6.2712-2.1723-8.8956 0-3.5092-3.2492-6.1058-3.2492-8.9148 0-0.01538 0.01754-0.04322 0.01857-0.05739 9.1e-4 -0.00917-0.00135-0.02961 0-0.03826 0.00157-0.00839-0.00201-0.03039 0-0.03826 0.00222-0.00762 0.01592-0.03114 0.01857-0.03826 0.00427-0.01031 0.01337-0.02905 0.01856-0.03826 0.00367-0.0059 0.01451-0.0137 0.01857-0.01913 0.00852-0.0104 0.02709-0.02969 0.03713-0.03826 0.00521-0.00407 0.01299-0.0155 0.01857-0.01913 0.00864-0.00513 0.02769-0.01496 0.03713-0.01913 0.00324-0.00129 0.01525 0.00118 0.01857 0 0.00341-0.00109 0.01508-0.01815 0.01857-0.01913 0.00714-0.00177 0.02966 0.00137 0.03713 0 0.67962-0.10555 2.6438 1.2916 3.3235 1.1861 0.00374-6.9e-4 0.01491 7.8e-4 0.01857 0 0.00357-8.8e-4 0.01508 9.9e-4 0.01857 0 0.00681-0.00217 0.03066-0.01656 0.03713-0.01913 0.00315-0.00139 0.01551 0.00149 0.01857 0 0.00297-0.0016 0.01568-0.01742 0.01856-0.01913 0.0081-0.00577 0.02988-0.01236 0.03714-0.01913 0.00696-0.00711 0.01247-0.03011 0.01856-0.03826 0.00194-0.00284 0.01674-0.01618 0.01857-0.01913 0.0052-0.00922 0.01429-0.02795 0.01857-0.03826 0.00132-0.00356-0.00122-0.01545 0-0.01913 0.00111-0.00381 0.01756-0.0152 0.01856-0.01913 0.00269-0.0122-0.00169-0.04403 0-0.0574 9.1e-4 -0.00917-4.5e-4 -0.02854 0-0.03826 1.2e-4 -0.00499 0-0.014 0-0.01913 0-2.4773-1.0322-4.847-1.6153-7.2504-0.72759-2.9987-2.9154-5.4531-4.3261-8.36-2.1965-4.5263-4.7048-8.4598-4.8645-8.8765-9.9e-4 -0.00296 6.8e-4 -0.01665 0-0.01913 1.793 0 4.5923 1.2418 5.4401 0.80348 0.02222-0.01228 0.05493-0.0426 0.07426-0.05739 0.00375-0.00306 0.01494-0.01597 0.01857-0.01913 0.00351-0.00327 0.01518-0.01575 0.01857-0.01913 0.00327-0.00349 0.01542-0.01554 0.01857-0.01913 0.00302-0.00371 0.01567-0.01532 0.01856-0.01913 0.02493-0.03531 0.05988-0.08926 0.07427-0.13392 0.00878-0.03049 0.01475-0.07985 0.01857-0.11478 0.01882-0.22599-0.06781-0.5606-0.27851-0.99478-1.4118-2.9094-2.168-5.0077-4.3261-7.2313-1.8037-1.8585-3.854-3.439-5.403-5.5669-1.7751-2.4386-4.4652-7.0041-7.5753-7.8052-0.72086-0.18569-1.4892-0.2124-2.1538-0.55478-0.72719-0.37463-1.0702-0.66466-1.1512-0.88-0.00287-0.00868-0.01655-0.02981-0.01856-0.03826-0.00159-0.00834 7.5e-4 -0.03014 0-0.03826-3.5e-4 -0.00801-4.6e-4 -0.03046 0-0.03826 4.2e-4 -0.00385-6.3e-4 -0.01534 0-0.01913 0.00328-0.01497 0.01225-0.04325 0.01856-0.05739 0.00882-0.01743 0.02386-0.0412 0.03714-0.05739 0.00282-0.00319 0.01557-0.01599 0.01856-0.01914 0.00317-0.00309 0.01524-0.01608 0.01857-0.01913 0.01747-0.015 0.05286-0.04351 0.07427-0.05739 0.70927-0.4369 3.3502-0.31611 3.6762-0.42086 0.00334-0.00139 0.01597 0.00146 0.01857 0 9.1e-4 -7.8e-4 -7.3e-4 -0.01834 0-0.01914-0.46056-0.6327-4.0291-4.6009-8.0952-6.6956-0.90947-0.46853-10.33-2.1581-11.289-2.6974-0.0074-0.00441-0.03093-0.01488-0.03714-0.01913-0.00249-0.00204-0.01637-0.01713-0.01856-0.01913-0.00157-0.00192-0.01731-0.01726-0.01857-0.01913-3e-4 -0.00175-3e-5 -0.01743 0-0.01913 0.2844-0.43955 0.97845-0.8709 1.114-1.32 0.00247-0.0089 0.01655-0.02932 0.01857-0.03826 0.00179-0.00895-0.00131-0.02928 0-0.03826 0.00161-0.01349-4.9e-4 -0.04382 0-0.05739 7e-5 -0.00906 4.6e-4 -0.02917 0-0.03826-0.00108-0.01367 0.00232-0.04364 0-0.05739-0.00183-0.00918-0.01616-0.02904-0.01857-0.03826-0.00405-0.01386-0.01316-0.04345-0.01856-0.05739-0.00392-0.00932-0.01403-0.02891-0.01857-0.03826-0.97049-1.9999-2.9236-3.4574-4.8645-4.4574-3.6665-1.8889-6.8291-3.433-10.806-4.4574-1.2483-0.32153-6.235-1.2462-6.9254-1.7982-0.00366-0.00313-0.01519-0.01603-0.01856-0.01913-0.0031-0.00308-0.01577-0.01608-0.01857-0.01913-0.00251-0.00303-0.01636-0.01613-0.01857-0.01914-0.00161-0.00294-0.01726-0.0162-0.01857-0.01913-9.9e-4 -0.00289 6.9e-4 -0.01626 0-0.01913-3.6e-4 -0.00283 5e-5 -0.01632 0-0.01913 2.8e-4 -0.00278-5.9e-4 -0.01638 0-0.01913 0.00126-0.00269 0.01699-0.01647 0.01857-0.01913 0.00768-0.01051 0.02397-0.02825 0.03714-0.03826 0.00364-0.00247 0.01457-0.01669 0.01856-0.01913 0.23934-0.13208 1.0279-0.21043 2.5994-0.21043 1.5126 0 2.2513-0.06047 2.4508-0.15305 0.00323-0.00167 0.01568-0.01743 0.01857-0.01913 0.00255-0.00172 0.01635 0.00175 0.01857 0 0.00378-0.00353 0.01608-0.0155 0.01856-0.01913 6e-4 -0.00185-2.8e-4 -0.01725 0-0.01913-3.3e-4 -0.00191 6.5e-4 -0.01719 0-0.01913-0.00125-0.00198-0.01702-0.01713-0.01856-0.01913-0.00214-0.00204-0.01614-0.01707-0.01857-0.01913-0.00814-0.00623-0.02645-0.01273-0.03713-0.01913-0.6754-0.37874-5.617-1.0504-7.2968-1.3965-3.9368-0.81125-7.8815-2.2191-11.901-2.2191h-8.4294c-1.3738-0.14816-2.7527-0.22534-4.1404-0.21043-0.10779 0.00116-0.20764-0.00248-0.31563 0z" stroke-width="2.412"/>
    </g>
    <path d="m527.53 347.52l-6.0533 4.158-6.0533 8.8357-4.54 8.316-1.5133 8.316-1.0089 8.316 0.5044 20.79 2.0178 21.829 2.5222 20.27 3.5311 12.994 7.5666 17.671 9.5843 19.75 10.593 24.428 3.5311 13.514 1.0089 8.316v9.3555l-3.0266 15.073-51.957-100.83s-23.709-27.547-19.673-38.981c4.0355-11.434 23.709-43.139 23.709-43.139l3.0266-6.237 6.5577-11.954 9.0799-12.474 10.593-8.316z" stroke-width=".603"/>
    <g fill="#fff" stroke-linecap="round" stroke-linejoin="round">
     <path transform="matrix(.18912 .53927 -.56324 .18108 532.12 158.19)" d="m827.6 323.32a207.48 131.98 0 1 1 -414.95 0 207.48 131.98 0 1 1 414.95 0z" stroke-width="5"/>
     <path transform="matrix(.65054 -.7627 .6523 .80986 54.677 769.47)" d="m624.73 39.766a21.9 16.713 0 1 1 -43.8 0 21.9 16.713 0 1 1 43.8 0z" stroke-width="2"/>
    </g>
    <path d="m462.84 353.85l0.3203-2.904 0.4484-2.2688 0.8328-3.3578 1.3453-3.8115 1.2812-2.4503 1.089-1.5428 1.0249-0.9075 0.6406-0.726 0.1281-0.726-0.5765-0.4538-1.0249 0.4538-1.2171 0.9983-1.5374 2.0873-0.9609 1.5428-1.0249 2.178-1.0249 2.541-0.7687 2.3595-0.4484 1.7243-0.3203 1.2705 1.7937 3.993z" stroke-width=".359"/>
    <path transform="matrix(-.44479 -.76988 -.67586 .54824 656.85 780.9)" d="m624.73 39.766a21.9 16.713 0 1 1 -43.8 0 21.9 16.713 0 1 1 43.8 0z" fill="#fff" stroke-linecap="round" stroke-linejoin="round" stroke-width="2"/>
    <path d="m371.81 351.02l-0.2831-3.0669-0.3964-2.396-0.7362-3.5461-1.1892-4.0253-1.1326-2.5877-0.9627-1.6293-0.9061-0.9584-0.5663-0.7667-0.1133-0.7667 0.5097-0.4792 0.9061 0.4792 1.076 1.0543 1.3591 2.2043 0.8495 1.6293 0.9061 2.3002 0.9061 2.6835 0.6796 2.4919 0.3964 1.821 0.2832 1.3418-1.5857 4.217z" stroke-width=".347"/>
    <path transform="matrix(.20296 .41927 -.40656 .20529 462.24 233.12)" d="m827.6 323.32a207.48 131.98 0 1 1 -414.95 0 207.48 131.98 0 1 1 414.95 0z" fill="#fff" stroke-linecap="round" stroke-linejoin="round" stroke-width="5.238"/>
    <path d="m481.12 464.98l-20.682 1.5592-10.089 1.5592-4.0355 1.0395-10.089-1.0395h-6.0533l-8.5755 1.0395-16.646 9.8752-7.0621 7.2765-3.5311 8.8357-1.0089 7.7962-5.5488-0.5197-3.0266-4.158 3.5311-12.994 2.0177-7.7962 7.5666-13.514 15.638-14.033h59.019l8.5755 15.073z" stroke-width=".603"/>
    <g fill="#fff" stroke-linecap="round" stroke-linejoin="round">
     <path d="m411.52 297.61l-4.9945 6.1982-4.9759 9.0295-4.3447 8.4748-2.2095 8.0156c-0.72893 0.3412-1.4395 0.71619-2.1538 1.0904v-9.1061l1.244-3.96 3.1192-7.3269-7.4639 11.842-3.1192 6.7722-1.6525 6.7722c-13.367 10.125-23.014 26.462-25.956 45.53-24.669 4.5322-42.776 18.388-43.929 35.946-1.5194 23.122 26.932 43.954 63.517 46.506 10.29 0.71779 20.136-0.08156 29.002-2.1235 2.9408 0.53509 5.9558 0.80348 9.0235 0.80348 6.3266 0 12.412-1.1826 18.121-3.367 10.902 5.8109 24.74 8.7121 39.529 7.4417 32.577-2.7984 57.422-24.752 55.459-49.012-1.8299-22.615-26.314-39.29-56.016-39.179-3.3429-17.247-12.205-32.025-24.286-41.647l-1.541-5.2991-1.6339-5.5669-2.1538-7.2313-1.0769 6.1217-2.0052 5.6243-0.1671-0.1339v-3.8261l-0.5384-6.6765-1.0769-7.2504-2.1723 6.1409-1.0769 4.4574-1.5039 2.1809-1.8196-1.4156-1.244-11.727-1.8752-7.3269-0.6127 4.5148-6.2199 8.4556v-9.0295l-0.6313-6.1982-1.244 5.6435-4.3446 6.1982-5.6072 5.6435-3.7319-4.5148v-7.3269l4.3632-10.158z" stroke-width="3.015"/>
     <path d="m374.78 451.4l0.2189 24.334c0.0154 1.6933 0.72172 3.0083 1.5947 2.9652l17.198-0.8417c0.87301-0.04307 1.5632-1.4441 1.5478-3.1374l-0.172-18.767c-7.3349-0.83318-14.224-2.4082-20.388-4.553z" stroke-width="2.767"/>
     <path d="m423.28 455.68c-6.6985 0.63848-13.846 0.77065-21.259 0.34434-0.5571-0.03203-1.1176-0.05758-1.671-0.09565l-1.5967 19.016c-0.13766 1.6374 0.94294 3.1283 2.4137 3.3287l17.323 2.353c1.4707 0.2004 2.7773-0.9643 2.915-2.6017l1.8752-22.344z" stroke-width="3.015"/>
    </g>
    <path d="m322.32 400.43l3.2779-2.9552 6.146-1.6887h7.7849l9.0141 4.0106 6.5557 4.4327 4.9168 3.3773 5.9411 2.1108-1.6389-16.464-6.146-11.61-7.58 1.6887-8.6044 2.7441-7.58 4.0106-7.3752 4.6438-3.073 3.1663" stroke-width=".603"/>
    <g stroke-linecap="round">
     <g stroke-linejoin="round">
      <g fill="#fff" stroke-width="4">
       <path transform="matrix(.47257 -.15178 .17681 .58444 138.9 383.54)" d="m489.29 120.58a42.857 43.214 0 1 1 -85.714 0 42.857 43.214 0 1 1 85.714 0z"/>
       <path transform="matrix(.49226 .052658 -.065253 .64759 216.04 274.93)" d="m510 120.58a63.571 61.071 0 1 1 -127.14 0 63.571 61.071 0 1 1 127.14 0z"/>
      </g>
      <path transform="matrix(.59117 .061107 -.059307 .60912 104.14 284.99)" d="m554.42 184.42a37.461 18.442 0 1 1 -74.922 0 37.461 18.442 0 1 1 74.922 0z" stroke-width="2"/>
      <g fill="#fff">
       <path transform="matrix(.17203 0 0 .1998 341.88 365.31)" d="m510 120.58a63.571 61.071 0 1 1 -127.14 0 63.571 61.071 0 1 1 127.14 0z" stroke-width="13.012"/>
       <path transform="matrix(.13339 0 0 .13607 316.33 375.46)" d="m510 120.58a63.571 61.071 0 1 1 -127.14 0 63.571 61.071 0 1 1 127.14 0z" stroke-width="17.906"/>
       <path d="m383.87 359.5c-10.099-15.394-30.185-19.809-45.144-9.8063-5.626 3.7619-9.7333 9.0325-12.169 14.989 2.4306-3.6224 5.5308-6.7969 9.2898-9.3104 16.529-11.052 39.323-5.1366 50.875 13.204 0.90251 1.4329 1.712 2.8948 2.4257 4.3863-0.75188-4.4674-2.3764-8.8566-4.9296-12.91-0.11691-0.18563-0.22842-0.37024-0.34816-0.55278z" stroke-width="1.843"/>
       <path d="m456.81 314.41c-17.779-12.927-41.261-4.3444-52.723 19.439-4.3111 8.945-6.3141 18.779-6.2184 28.315 0.9571-6.4781 2.8334-12.849 5.7138-18.825 12.666-26.28 39.724-34.833 60.393-19.089 1.6148 1.23 3.1432 2.5646 4.5826 4.0062-2.8293-5.3088-6.5565-9.8917-11.124-13.371-0.20919-0.15934-0.41212-0.32123-0.62294-0.47452z" stroke-width="2.42"/>
      </g>
     </g>
     <g fill="none" stroke-width="1.508">
      <path d="m436.83 423.97l128.75-29.636"/>
      <path d="m440.86 427.6l130.28-21.368"/>
      <path d="m442.2 434.19l131.71-7.727"/>
      <path d="m366.72 419.01l-129.98-23.263"/>
      <path d="m362.78 423.61l-130.95-16.479"/>
      <path d="m361.78 431.51l-131.82-5.3115"/>
     </g>
    </g>
   </g>
   <path d="m269.81 522.64l373.96 97.567-272.39 110.52-307.02-166.88 205.44-41.204z" fill="#fff" stroke="#0f0f0f" stroke-linecap="round" stroke-linejoin="round" stroke-width="2.412"/>
   <g stroke="#000">
    <g fill="#fff">
     <g stroke-linecap="round" stroke-linejoin="round">
      <g stroke-width="2.412">
       <path d="m153.03 533.3l84.748 52.806 106.04-31.076-102.54-36.766-88.251 15.036z"/>
       <path d="m234.52 612.05l109.49-26.745-1.6268-4.7227-4.7676-5.3161-0.5284-9.8001 1.5853-5.989 5.1417-4.4474-111.17 23.417-3.8414 5.8972-0.3563 9.2985 0.095 9.3169 5.9788 9.0905z"/>
       <path d="m232.96 611.82l-83.828-53.234-3.1823-11.305 0.3206-8.3687 4.3104-6.3438 85.9 46.334-2.7965 2.2145-2.8677 4.0742-0.1781 4.6492 0.2197 6.0624 1.0865 7.0289 1.0152 8.8886z"/>
      </g>
      <g transform="matrix(-.59225 -.048848 -.04741 .61022 -161.31 308.67)" stroke-width="4">
       <path d="m-846.91 271.02l145.93 80.566 176.33-57.764-174.81-53.204-147.45 30.402z"/>
       <path d="m-704.77 394.15l182.41-50.924-6.6368-4.5372-0.9457-10.281c1.4971-22.212 0.48891-13.127 0.73337-19.691l-1.0942-9.5923 5.6632-5.303-185.45 45.604-6.0805 9.8808v15.201l0.7601 15.201 10.641 14.441z"/>
       <path d="m-706.31 393.96l-145.52-81.415-6.0804-18.241v-13.681l6.8405-10.641 147.45 69.926-3.8167 4.9769-1.9409 9.0052-0.2553 7.3009-0.3055 9.2369-0.4394 13.976 4.0675 9.5572z"/>
      </g>
      <g stroke-width="2.412">
       <path d="m139.58 485.19l84.052 39.934 108.52-15.659-101.98-29.946-90.589 5.6707z"/>
       <path d="m222.42 542.71l107.29-16.987 0.7418 0.9819-4.7034-3.835-0.4229-6.6634 1.6467-3.9782-1.9311-5.3154-104.13 12.946c-1.2994 1.2683 0.70737 1.174-3.8983 3.805l-0.455 6.2801-0.0046 6.3147 5.8724 6.451z"/>
       <path d="m222.19 541.79l-84.452-39.497-1.7335-6.2794 0.4095-7.5267 3.2136-3.4027 85.106 35.267-2.8157 1.3622-1.5835 3.4703-0.5583 3.3105-0.3416 4.2871 0.3482 4.6436 2.4074 4.3658z"/>
       <path d="m283.03 485.09l-62.081 12.857-62.189-32.69 75.969-4.6476 48.301 24.481z"/>
       <path d="m217.93 514.75l-59.214-32.446 1.9548-2.4915 1.6644-2.3004 0.3459-4.9775-0.7245-3.786-3.5269-4.1738 61.246 31.804 2.7722 5.1421-0.3685 3.8125-0.3149 5.1092-3.8343 4.307z"/>
       <path d="m218.43 514.2l63.875-14.114 2.4285-5.0639-0.4006-5.5056-1.3109-4.4621-63.053 11.413 1.4059 2.9724 0.9021 2.3715 0.6428 3.4401-1.5422 3.1783-0.6735 2.6033-2.2734 3.1661z"/>
      </g>
     </g>
     <path d="m319.68 581.06l68.958 72.186 3.3995 8.4779 4.7835 3.5429 15.076-3.4815 84.995-25.845 18.202-136.13-22.581-6.4204-73.305 9.6521-11.654 4.1977-2.0627 2.8161 0.0103-3.5281-9.5691-6.3801-34.887-13.515-52.68-17.803-9.5958 2.7928 20.911 109.44z" stroke-width="1.206"/>
     <path d="m413.7 514.12l104.83-18.022-17.534 141.78-91.158 25.826 3.8596-149.58z" stroke-width="2.412"/>
     <path d="m398.96 512.17l9.4648 1.1997-4.1238 152.63-7.8875-1.2228 2.5465-152.6z" stroke-width="2.058"/>
     <path d="m296.04 468.6l99.177 42.644-3.1769 150.29-76.473-78.56-19.527-114.37z" stroke-width="2.412"/>
    </g>
    <g fill="none" stroke-width="1.206">
     <path d="m314.82 537.79l67.695 50.667 0.6386 23.688-65.779-59.879-2.5545-14.476z"/>
     <path d="m345.48 501.6l40.234 17.766-0.6386 50.667-38.318-28.295-1.2773-40.139z"/>
    </g>
    <g stroke-linecap="round" stroke-linejoin="round">
     <g fill="#fff">
      <path transform="matrix(-.22954 .5695 -.39079 -.25808 576.09 410.11)" d="m443.77 457.6a35.156 55.327 0 1 1 -70.311 0 35.156 55.327 0 1 1 70.311 0z" stroke-width="4.544"/>
      <g stroke-width="4">
       <path transform="matrix(.74457 -.21268 .17279 .5342 -77.77 543.93)" d="m757.29 295.08a42.648 49.564 0 1 1 -85.296 0 42.648 49.564 0 1 1 85.296 0z"/>
       <path transform="matrix(.36728 .0212 .056853 .46183 525.38 349.11)" d="m-335.42 179.24a21.9 9.7975 0 1 1 -43.8 0 21.9 9.7975 0 1 1 43.8 0z"/>
      </g>
     </g>
     <path transform="matrix(.079685 0 0 .078836 340.21 382.27)" d="m510 120.58a63.571 61.071 0 1 1 -127.14 0 63.571 61.071 0 1 1 127.14 0z" stroke-width="17.906"/>
     <path transform="matrix(.10808 0 0 .12442 369.94 374.03)" d="m510 120.58a63.571 61.071 0 1 1 -127.14 0 63.571 61.071 0 1 1 127.14 0z" stroke-width="13.012"/>
     <g fill="#fff">
      <path transform="matrix(.091927 0 0 .08744 383.39 377.29)" d="m510 120.58a63.571 61.071 0 1 1 -127.14 0 63.571 61.071 0 1 1 127.14 0z" stroke-width="13.012"/>
      <path transform="matrix(.074095 0 0 .066743 348.34 381.77)" d="m510 120.58a63.571 61.071 0 1 1 -127.14 0 63.571 61.071 0 1 1 127.14 0z" stroke-width="17.906"/>
     </g>
    </g>
   </g>
  </g>
  <g font-family="Arial Black" line-height="0%">
   <text transform="matrix(.75517 -.35427 .48468 1.0968 0 0)" x="274.47852" y="358.05432" font-size="71.28px" xml:space="preserve"><tspan x="274.47852" y="358.05432">!</tspan>
</text>
   <text transform="scale(.80542 1.2416)" x="494.03595" y="230.27591" font-size="68.902px" xml:space="preserve"><tspan x="494.03595" y="230.27591">?</tspan><tspan x="494.03595" y="230.27591"/>
</text>
   <text transform="matrix(.76088 .34107 -.46663 1.1051 0 0)" x="607.59406" y="71.154167" font-size="71.28px" xml:space="preserve"><tspan x="607.59406" y="71.154167">!</tspan>
</text>
  </g>
  <g fill-rule="evenodd">
   <g stroke="#000">
    <g stroke-width=".603">
     <path d="m326.32 533.84l-0.6386 8.5542-3.1932 6.5802-5.1091 7.2382-3.1932 3.2901-3.1932 1.316-1.9159-12.502h3.8318l5.7477-1.9741 3.8318-3.9481 2.5545-3.9481 1.2773-4.6061z"/>
     <path d="m473.21 559.5l3.8318 10.528 3.1932 6.5802 5.1091 5.2641 5.7477 3.9481 7.6636 3.2901 5.7477 1.9741h1.9159l1.9159-13.818h-10.857l-9.5795-3.2901-6.3863-3.9481-5.1091-5.2641-3.1932-5.2641z"/>
    </g>
    <g transform="matrix(.32868 0 0 .31838 619.51 526.46)">
     <g fill="#fff">
      <path transform="matrix(-.46111 -.32319 .34506 -.43189 -778.32 -161.46)" d="m-541.74-38.647a41.383 33.322 0 1 1 -82.766 0 41.383 33.322 0 1 1 82.766 0z" stroke-linecap="round" stroke-linejoin="round" stroke-width="6.45"/>
      <path d="m-466.56 65.78l-35.857 18.116-44.489 1.2494-21.248-21.864 9.2962-44.353 14.608-13.118 12.616 35.607 25.896 15.617 29.88-1.8741 9.2962 10.62z" stroke-width="3.595"/>
     </g>
     <g stroke-width="3.595">
      <path d="m-519.68 62.032l-27.224 22.489-21.248-21.864 23.904-23.738 24.568 23.113z" fill="none"/>
      <path d="m-522.34 65.164l56.447-0.6356v-46.221l-37.857-28.114-40.501 14.983-3.3204 36.232 25.231 23.755zm21.756-13.203c-5.8611 0.13163-12.257-1.7515-17.818-5.6664-11.298-7.9541-14.935-21.353-8.1273-29.912 6.8077-8.5586 21.5-9.0438 32.799-1.0897 11.298 7.9541 14.935 21.353 8.1273 29.912-3.4571 4.3462-8.9332 6.6202-14.98 6.756z" fill="#fff"/>
     </g>
    </g>
    <g transform="matrix(.2984 -.21134 .23582 .22613 586.13 460.81)">
     <g fill="#fff">
      <path transform="matrix(-.46111 -.32319 .34506 -.43189 -778.32 -161.46)" d="m-541.74-38.647a41.383 33.322 0 1 1 -82.766 0 41.383 33.322 0 1 1 82.766 0z" stroke-linecap="round" stroke-linejoin="round" stroke-width="6.45"/>
      <path d="m-466.56 65.78l-35.857 18.116-44.489 1.2494-21.248-21.864 9.2962-44.353 14.608-13.118 12.616 35.607 25.896 15.617 29.88-1.8741 9.2962 10.62z" stroke-width="3.595"/>
     </g>
     <g stroke-width="3.595">
      <path d="m-519.68 62.032l-27.224 22.489-21.248-21.864 23.904-23.738 24.568 23.113z" fill="none"/>
      <path d="m-522.34 65.164l56.447-0.6356v-46.221l-37.857-28.114-40.501 14.983-3.3204 36.232 25.231 23.755zm21.756-13.203c-5.8611 0.13163-12.257-1.7515-17.818-5.6664-11.298-7.9541-14.935-21.353-8.1273-29.912 6.8077-8.5586 21.5-9.0438 32.799-1.0897 11.298 7.9541 14.935 21.353 8.1273 29.912-3.4571 4.3462-8.9332 6.6202-14.98 6.756z" fill="#fff"/>
     </g>
    </g>
    <g transform="matrix(.18245 -.19862 .25702 .12462 556.58 497.36)">
     <g fill="#fff">
      <path transform="matrix(-.46111 -.32319 .34506 -.43189 -778.32 -161.46)" d="m-541.74-38.647a41.383 33.322 0 1 1 -82.766 0 41.383 33.322 0 1 1 82.766 0z" stroke-linecap="round" stroke-linejoin="round" stroke-width="6.45"/>
      <path d="m-466.56 65.78l-35.857 18.116-44.489 1.2494-21.248-21.864 9.2962-44.353 14.608-13.118 12.616 35.607 25.896 15.617 29.88-1.8741 9.2962 10.62z" stroke-width="3.595"/>
     </g>
     <g stroke-width="3.595">
      <path d="m-519.68 62.032l-27.224 22.489-21.248-21.864 23.904-23.738 24.568 23.113z" fill="none"/>
      <path d="m-522.34 65.164l56.447-0.6356v-46.221l-37.857-28.114-40.501 14.983-3.3204 36.232 25.231 23.755zm21.756-13.203c-5.8611 0.13163-12.257-1.7515-17.818-5.6664-11.298-7.9541-14.935-21.353-8.1273-29.912 6.8077-8.5586 21.5-9.0438 32.799-1.0897 11.298 7.9541 14.935 21.353 8.1273 29.912-3.4571 4.3462-8.9332 6.6202-14.98 6.756z" fill="#fff"/>
     </g>
    </g>
    <g fill="none">
     <g stroke-width=".603">
      <path d="m316.74 595.04l-1.9159 38.165-8.9409 1.974-6.3863 6.5802-2.5545 9.2122 3.8318 9.8702 10.857 9.8702v5.2641"/>
      <path d="m501.31 653.73l4.3785 30.359"/>
     </g>
     <path d="m409.34 682.68l0.6386 36.512"/>
     <path d="m404.23 681.37l-0.6386 39.535"/>
     <path d="m395.93 678.08l-1.2773 48.035"/>
     <path d="m391.46 676.76l-4.1288 45.449"/>
     <g stroke-width=".603">
      <path d="m148.12 566.03c2.0505 10.779-6.7349 8.3027-11.909 13.634-3.6511 3.7619 1.0675 10.597 0 14.997-0.32092 1.3227 0 2.7267 0 4.0901"/>
      <path d="m233.59 614.59c-2.3753 1.8615-3.7426 6.8678-3.7426 13.497 0 4.8519 4.5052 11.479 8.4208 13.497 4.709 2.426 0.81858 8.3155 0 12.533"/>
     </g>
    </g>
    <path d="m275.7 516.26c-15.282 1.9281-30.564 3.8562-45.847 5.7843 12.163-0.96405 24.327-1.9281 36.49-2.8922-11.228 3.2135-22.456 6.427-33.683 9.6405 15.282 0.32135 30.564 0.6427 45.847 0.96404 1.5986 4.8815-0.77496 12.007-6.3952 12.397-7.0554 1.6528-13.744 4.8142-20.604 7.1887 6.5189-1.9714 13.006-4.0715 19.514-6.089 4.4404 1.7784 10.012 5.1888 9.4037 10.88 0.39102 5.615-7.0753 9.655-8.4471 11.83 3.7871-0.5205 7.2078-2.7836 10.85-3.9376 5.1534-1.9036 10.502 0.22219 15.441 1.6775 5.4683 2.572-2.0625 3.4402-4.3381 4.108-12.627 3.3826-25.253 6.7651-37.88 10.148 4.3664 3.7023 9.6399-0.56747 14.394-0.62119 5.7821-0.86487 11.839-3.2944 17.598-0.99354 5.7629-1.3524 6.9873 7.6191 3.3245 10.726-4.4132 4.246-10.885 4.2725-16.249 6.5876-7.9744 3.0191-16.159 5.3883-24.17 8.2966 21.661-4.4637 43.322-8.9275 64.984-13.391-3.7406-2.7783-8.9011-5.8246-8.7675-11.251 1.1862-7.3407-0.25286-14.776-1.2712-22.052-3.5688-4.4757-9.9137-4.2333-14.033-7.8945-7.8741-3.1834-11.655-11.78-14.507-19.384-1.1156-3.8054-1.0755-7.8213-1.6545-11.722z" fill="#040404" stroke-width=".603"/>
   </g>
   <path d="m104.47 565.42l-68.302-2.8921 344.32 207.27 293.79-149.43h-77.659l-202.1 94.476-290.05-149.43z" fill="#fff"/>
  </g>
 </g>
</svg>
