<?xml version="1.0" encoding="UTF-8" standalone="no"?>
<!-- Generator: Adobe Illustrator 18.0.0, SVG Export Plug-In . SVG Version: 6.00 Build 0)  -->

<svg
   xmlns:dc="http://purl.org/dc/elements/1.1/"
   xmlns:cc="http://creativecommons.org/ns#"
   xmlns:rdf="http://www.w3.org/1999/02/22-rdf-syntax-ns#"
   xmlns:svg="http://www.w3.org/2000/svg"
   xmlns="http://www.w3.org/2000/svg"
   xmlns:xlink="http://www.w3.org/1999/xlink"
   xmlns:sodipodi="http://sodipodi.sourceforge.net/DTD/sodipodi-0.dtd"
   xmlns:inkscape="http://www.inkscape.org/namespaces/inkscape"
   version="1.1"
   id="Capa_1"
   x="0px"
   y="0px"
   viewBox="0 0 402.24283 401.91003"
   xml:space="preserve"
   inkscape:version="0.91 r13725"
   sodipodi:docname="high-five-pa-circle-border.svg"
   inkscape:export-filename="D:\Desktop\20180407 PACOR icon\high-five-pa-circle-border.png"
   inkscape:export-xdpi="300"
   inkscape:export-ydpi="300"
   width="402.24283"
   height="401.91003"><metadata
   id="metadata42"><rdf:RDF><cc:Work
       rdf:about=""><dc:format>image/svg+xml</dc:format><dc:type
         rdf:resource="http://purl.org/dc/dcmitype/StillImage" /><dc:title></dc:title></cc:Work></rdf:RDF></metadata><defs
   id="defs40"><linearGradient
   inkscape:collect="always"
   id="linearGradient4271"><stop
     style="stop-color:#eb9e00;stop-opacity:0.5411765"
     offset="0"
     id="stop4273" /><stop
     style="stop-color:#b56e00;stop-opacity:1"
     offset="1"
     id="stop4275" /></linearGradient>
	
	
	
	
<radialGradient
   inkscape:collect="always"
   xlink:href="#linearGradient4271"
   id="radialGradient4277"
   cx="237.77628"
   cy="174.6291"
   fx="237.77628"
   fy="174.6291"
   r="183.01369"
   gradientTransform="matrix(-0.00386363,0.90796536,-0.9999909,-0.00426606,378.3796,-71.018133)"
   gradientUnits="userSpaceOnUse" /></defs><sodipodi:namedview
   pagecolor="#f86767"
   bordercolor="#666666"
   borderopacity="1"
   objecttolerance="10"
   gridtolerance="10"
   guidetolerance="10"
   inkscape:pageopacity="0"
   inkscape:pageshadow="2"
   inkscape:window-width="1920"
   inkscape:window-height="1018"
   id="namedview38"
   showgrid="false"
   inkscape:zoom="1.4142136"
   inkscape:cx="121.94712"
   inkscape:cy="166.78881"
   inkscape:window-x="-8"
   inkscape:window-y="730"
   inkscape:window-maximized="1"
   inkscape:current-layer="Capa_1"
   fit-margin-top="0"
   fit-margin-left="0"
   fit-margin-right="0"
   fit-margin-bottom="0" />

<path
   style="opacity:1;fill:#ffffff;fill-opacity:1;fill-rule:evenodd;stroke:#000000;stroke-width:0;stroke-linecap:round;stroke-linejoin:round;stroke-miterlimit:4;stroke-dasharray:none;stroke-opacity:1"
   d="M 200.97562,0.02184162 C 109.9777,-1.4102884 23.170252,67.772228 4.8154681,157.01794 -14.190581,239.00993 24.339575,331.63712 97.884649,373.54029 162.34453,412.52445 249.39887,411.70186 311.79688,368.77517 371.2369,329.78164 407.99527,257.63173 401.50297,186.44567 396.7362,119.20985 356.30549,54.995762 295.99292,24.097381 266.93373,8.4802806 234.00598,-0.12619038 200.97562,0.02184162 Z"
   id="path4237-0"
   inkscape:connector-curvature="0"
   inkscape:export-xdpi="300"
   inkscape:export-ydpi="300" /><g
   id="g8"
   transform="translate(-38.290001,-38.286752)">
</g>
<g
   id="g10"
   transform="translate(-38.290001,-38.286752)">
</g>
<g
   id="g12"
   transform="translate(-38.290001,-38.286752)">
</g>
<g
   id="g14"
   transform="translate(-38.290001,-38.286752)">
</g>
<g
   id="g16"
   transform="translate(-38.290001,-38.286752)">
</g>
<g
   id="g18"
   transform="translate(-38.290001,-38.286752)">
</g>
<g
   id="g20"
   transform="translate(-38.290001,-38.286752)">
</g>
<g
   id="g22"
   transform="translate(-38.290001,-38.286752)">
</g>
<g
   id="g24"
   transform="translate(-38.290001,-38.286752)">
</g>
<g
   id="g26"
   transform="translate(-38.290001,-38.286752)">
</g>
<g
   id="g28"
   transform="translate(-38.290001,-38.286752)">
</g>
<g
   id="g30"
   transform="translate(-38.290001,-38.286752)">
</g>
<g
   id="g32"
   transform="translate(-38.290001,-38.286752)">
</g>
<g
   id="g34"
   transform="translate(-38.290001,-38.286752)">
</g>
<g
   id="g36"
   transform="translate(-38.290001,-38.286752)">
</g>
<path
   id="path3374"
   style="opacity:1;fill:url(#radialGradient4277);fill-opacity:1;fill-rule:evenodd;stroke:#000000;stroke-width:0;stroke-linecap:round;stroke-linejoin:round;stroke-miterlimit:4;stroke-dasharray:none;stroke-opacity:1"
   d="m 62.267939,320.0251 0,-36.90625 -10.61523,23.25195 a 183.01323,183.01323 0 0 0 10.61523,13.6543 z m 286.085931,-10.69532 -9.22656,-20.21289 0.006,31.88282 a 183.01323,183.01323 0 0 0 9.2207,-11.66993 z M 201.057,18.04658 A 183.01323,183.01323 0 0 0 18.043329,201.06025 183.01323,183.01323 0 0 0 31.453485,269.54853 l 29.191404,-63.95898 c 3.062,-6.695 9.95172,-10.2458 16.88672,-9.5918 0.25962,-0.0356 4.19155,-0.0991 13.17969,-0.16797 4.63324,5.01725 11.432521,12.88216 15.328121,16.875 7.59956,-7.2923 12.25161,-12.47188 16.58398,-17.09375 4.69559,-0.0297 19.17439,-8.94127 28.3711,-16.77539 4.03957,-3.44106 15.59872,-15.29361 27.23828,-25.13085 3.78427,6.95636 12.62497,20.73964 18.57226,30.18554 l -39.10937,41.35156 0.0293,153.4043 a 183.01323,183.01323 0 0 0 43.33203,5.42773 183.01323,183.01323 0 0 0 42.61133,-5.24609 c 0.0145,-66.0181 0.0312,-134.19608 0.0312,-147.58594 -24.08256,-22.29267 -38.01965,-47.93595 -54.99219,-77.06835 -5.494,-7.497 -3.85952,-18.03453 3.64648,-23.51953 7.497,-5.517 18.02653,-3.85557 23.51953,3.64843 0,0 15.1767,27.96959 24.61524,38.9375 8.19678,10.94392 17.40487,20.37848 28.10937,27.03711 9.96193,6.19673 54.46653,1.61075 55.26953,1.71875 6.943,-0.654 13.81591,2.90675 16.87891,9.59375 l 28.2832,61.96875 A 183.01323,183.01323 0 0 0 384.07067,201.06025 183.01323,183.01323 0 0 0 201.057,18.04658 Z"
   inkscape:export-xdpi="300"
   inkscape:export-ydpi="300"
   inkscape:connector-curvature="0" /><path
   style="opacity:1;fill:#ffffff;fill-opacity:1;fill-rule:evenodd;stroke:#000000;stroke-width:0;stroke-linecap:round;stroke-linejoin:round;stroke-miterlimit:4;stroke-dasharray:none;stroke-opacity:1"
   d="m 200.57262,77.978218 a 2.818808,3.0955922 0 0 1 2.89649,3.33789 l -2.46875,34.107432 a 2.818808,3.0955922 0 0 1 -2.86524,2.85156 l -2.35547,-0.0508 a 2.818808,3.0955922 0 0 1 -2.75,-2.81836 l -2.76757,-33.808602 a 2.818808,3.0955922 0 0 1 2.7207,-3.36914 l 7.58984,-0.25 z"
   id="path3370"
   inkscape:connector-curvature="0"
   inkscape:export-xdpi="300"
   inkscape:export-ydpi="300" /><path
   style="opacity:1;fill:#ffffff;fill-opacity:1;fill-rule:evenodd;stroke:#000000;stroke-width:0;stroke-linecap:round;stroke-linejoin:round;stroke-miterlimit:4;stroke-dasharray:none;stroke-opacity:1"
   d="m 169.4984,85.823928 a 3.0955922,2.818808 60.575648 0 1 2.8711,1.86133 l 14.60742,30.921872 a 3.0955922,2.818808 60.575648 0 1 -1.0957,3.89063 l -2.07618,1.11328 a 3.0955922,2.818808 60.575648 0 1 -3.78125,-1.10547 L 161.00426,94.419628 a 3.0955922,2.818808 60.575648 0 1 0.71485,-4.27148 l 6.48828,-3.94727 a 3.0955922,2.818808 60.575648 0 1 1.29101,-0.37695 z"
   id="path3368"
   inkscape:connector-curvature="0"
   inkscape:export-xdpi="300"
   inkscape:export-ydpi="300" /><path
   style="opacity:1;fill:#ffffff;fill-opacity:1;fill-rule:evenodd;stroke:#000000;stroke-width:0;stroke-linecap:round;stroke-linejoin:round;stroke-miterlimit:4;stroke-dasharray:none;stroke-opacity:1"
   d="m 219.75622,92.499708 a 2.0041031,2.0041031 0 0 1 1.14648,0.29883 l 5.98828,3.70898 a 2.0041031,2.0041031 0 0 1 0.57227,2.87305 l -14.32032,19.931642 a 2.0041031,2.0041031 0 0 1 -2.54101,0.61328 l -2.67773,-1.37305 a 2.0041031,2.0041031 0 0 1 -0.88282,-2.67187 l 11.00977,-22.267582 a 2.0041031,2.0041031 0 0 1 1.70508,-1.11328 z"
   id="path3366"
   inkscape:connector-curvature="0"
   inkscape:export-xdpi="300"
   inkscape:export-ydpi="300" /><path
   style="opacity:1;fill:#ffffff;fill-opacity:1;fill-rule:evenodd;stroke:#000000;stroke-width:0;stroke-linecap:round;stroke-linejoin:round;stroke-miterlimit:4;stroke-dasharray:none;stroke-opacity:1"
   d="m 105.75622,113.36494 c 21.734,0 39.35937,17.61038 39.35937,39.35938 0,21.734 -17.62637,39.34375 -39.35937,39.34375 -21.749001,0 -39.352511,-17.60975 -39.353511,-39.34375 0,-21.749 17.60451,-39.35938 39.353511,-39.35938 z"
   id="path3364"
   inkscape:connector-curvature="0"
   inkscape:export-xdpi="300"
   inkscape:export-ydpi="300" /><path
   style="opacity:1;fill:#ffffff;fill-opacity:1;fill-rule:evenodd;stroke:#000000;stroke-width:0;stroke-linecap:round;stroke-linejoin:round;stroke-miterlimit:4;stroke-dasharray:none;stroke-opacity:1"
   d="m 154.03356,114.62276 a 2.6013412,2.6013412 0 0 1 0.51563,0.0645 2.6013412,2.6013412 0 0 1 0.7246,0.2832 l 20.74219,11.98047 a 2.6013412,2.6013412 0 0 1 1.07031,3.32617 l -0.92578,2.03906 a 2.6013412,2.6013412 0 0 1 -3.15625,1.40625 l -22.82031,-7.24414 a 2.6013412,2.6013412 0 0 1 -1.5918,-3.53125 l 3.00196,-6.77734 a 2.6013412,2.6013412 0 0 1 2.43945,-1.54688 z"
   id="path3362"
   inkscape:connector-curvature="0"
   inkscape:export-xdpi="300"
   inkscape:export-ydpi="300" /><path
   style="opacity:1;fill:#ffffff;fill-opacity:1;fill-rule:evenodd;stroke:#000000;stroke-width:0;stroke-linecap:round;stroke-linejoin:round;stroke-miterlimit:4;stroke-dasharray:none;stroke-opacity:1"
   d="m 291.40465,115.24385 c 21.749,0 39.35157,17.61037 39.35157,39.35937 0,21.734 -17.60257,39.34375 -39.35157,39.34375 -21.733,0 -39.36132,-17.60975 -39.36132,-39.34375 0,-21.749 17.62832,-39.35937 39.36132,-39.35937 z"
   id="path3360"
   inkscape:connector-curvature="0"
   inkscape:export-xdpi="300"
   inkscape:export-ydpi="300" /><path
   style="opacity:1;fill:#ffffff;fill-opacity:1;fill-rule:evenodd;stroke:#000000;stroke-width:0;stroke-linecap:round;stroke-linejoin:round;stroke-miterlimit:4;stroke-dasharray:none;stroke-opacity:1"
   d="m 173.31676,138.68135 a 2.085768,1.750712 78.953769 0 1 1.80078,1.76758 l 0.32227,1.76758 a 2.085768,1.750712 78.953769 0 1 -1.15039,2.30468 l -15.35352,5.00782 a 2.085768,1.750712 78.953769 0 1 -2.29492,-1.67969 l -1.10547,-5.83985 a 2.085768,1.750712 78.953769 0 1 1.00782,-2.27148 2.085768,1.750712 78.953769 0 1 0.50976,-0.12109 l 16.13867,-0.9336 a 2.085768,1.750712 78.953769 0 1 0.125,-0.002 z"
   id="path4237"
   inkscape:connector-curvature="0"
   inkscape:export-xdpi="300"
   inkscape:export-ydpi="300" /></svg>