<!DOCTYPE svg PUBLIC "-//W3C//DTD SVG 20010904//EN" "http://www.w3.org/TR/2001/REC-SVG-20010904/DTD/svg10.dtd">
<svg version="1.0" xmlns="http://www.w3.org/2000/svg" width="81px" height="81px" viewBox="0 0 810 810" preserveAspectRatio="xMidYMid meet">
<g id="layer101" fill="#292929" stroke="none">
 <path d="M323 795 c-167 -37 -286 -164 -314 -335 -26 -161 70 -344 217 -416 292 -143 629 103 576 420 -38 229 -256 380 -479 331z m-182 -250 l7 -30 1 33 1 32 80 0 80 0 0 -51 c0 -48 4 -56 44 -99 80 -86 111 -181 60 -188 -16 -2 -28 8 -47 40 -46 79 -102 117 -170 119 -18 0 -48 5 -67 12 -40 14 -58 53 -59 125 -1 43 -1 43 31 40 27 -2 34 -8 39 -33z m527 3 l10 -33 1 33 c1 29 4 32 31 32 30 0 30 0 30 -59 0 -43 -5 -65 -20 -83 -25 -32 -70 -40 -99 -17 -23 19 -17 23 -132 -86 l-36 -35 -18 39 c-16 35 -16 41 -1 63 9 13 29 34 46 46 27 20 30 28 30 77 l0 55 74 0 73 0 11 -32z m-405 -190 c24 -28 21 -65 -8 -93 -56 -57 -141 -3 -114 73 18 53 85 64 122 20z m400 4 c27 -24 22 -76 -9 -101 -34 -27 -64 -27 -92 -1 -52 49 -5 141 63 123 11 -3 28 -12 38 -21z m-153 -122 c0 -14 -14 -12 -28 2 -19 19 -14 30 8 18 11 -6 20 -15 20 -20z m-140 -9 c0 -13 -29 -35 -37 -28 -7 8 15 37 28 37 5 0 9 -4 9 -9z m94 -33 c-9 -14 -24 2 -24 25 1 21 1 21 15 3 8 -10 12 -23 9 -28z m-54 7 c0 -14 -4 -25 -10 -25 -5 0 -10 11 -10 25 0 14 5 25 10 25 6 0 10 -11 10 -25z"/>
 </g>
<g id="layer102" fill="#dbdbdb" stroke="none">
 <path d="M343 803 c9 -2 23 -2 30 0 6 3 -1 5 -18 5 -16 0 -22 -2 -12 -5z"/>
 <path d="M443 803 c9 -2 25 -2 35 0 9 3 1 5 -18 5 -19 0 -27 -2 -17 -5z"/>
 <path d="M270 790 c-11 -8 -7 -9 15 -4 37 8 45 14 19 14 -10 0 -26 -5 -34 -10z"/>
 <path d="M551 776 c31 -12 69 -32 86 -44 30 -21 98 -93 121 -128 7 -10 5 -4 -4 15 -9 18 -36 53 -60 77 -44 42 -153 104 -183 104 -9 0 9 -11 40 -24z"/>
 <path d="M214 764 c-18 -14 -18 -14 6 -3 31 14 36 19 24 19 -6 0 -19 -7 -30 -16z"/>
 <path d="M129 703 c-28 -26 -55 -56 -61 -68 -5 -11 4 -3 21 17 18 21 48 51 69 68 20 16 33 30 29 30 -4 0 -31 -21 -58 -47z"/>
 <path d="M40 589 c-7 -11 -10 -23 -7 -25 2 -2 9 7 15 21 14 30 7 33 -8 4z"/>
 <path d="M70 563 c0 -11 3 -14 8 -7 4 6 14 14 22 17 10 4 8 6 -7 6 -16 1 -23 -5 -23 -16z"/>
 <path d="M151 558 c1 -17 2 -19 6 -5 4 14 16 17 73 17 l69 0 4 -32 c4 -32 4 -32 5 5 l2 37 -80 0 c-77 0 -80 -1 -79 -22z"/>
 <path d="M513 545 c0 -22 2 -30 4 -17 2 12 2 30 0 40 -3 9 -5 -1 -4 -23z"/>
 <path d="M655 551 c5 -34 12 -48 19 -40 2 2 -3 20 -10 39 l-14 35 5 -34z"/>
 <path d="M682 560 c0 -14 2 -19 5 -12 2 6 2 18 0 25 -3 6 -5 1 -5 -13z"/>
 <path d="M770 579 c0 -4 7 -22 15 -40 8 -19 14 -27 14 -19 0 14 -28 72 -29 59z"/>
 <path d="M132 550 c0 -14 2 -19 5 -12 2 6 2 18 0 25 -3 6 -5 1 -5 -13z"/>
 <path d="M16 535 c-3 -9 -6 -22 -5 -28 0 -7 5 -1 10 12 5 13 8 26 5 28 -2 2 -6 -3 -10 -12z"/>
 <path d="M76 501 c2 -24 9 -52 14 -62 11 -19 69 -40 110 -38 14 1 2 6 -26 11 -61 11 -78 27 -93 88 l-11 45 6 -44z"/>
 <path d="M732 500 c-3 -52 -26 -80 -67 -80 -19 0 -37 5 -40 10 -3 6 -11 10 -17 10 -5 0 0 -8 13 -18 49 -41 125 11 116 79 l-4 34 -1 -35z"/>
 <path d="M802 475 c0 -16 2 -22 5 -12 2 9 2 23 0 30 -3 6 -5 -1 -5 -18z"/>
 <path d="M2 460 c0 -19 2 -27 5 -17 2 9 2 25 0 35 -3 9 -5 1 -5 -18z"/>
 <path d="M345 430 c22 -25 48 -56 58 -70 17 -24 17 -24 0 8 -10 18 -35 49 -57 70 l-40 37 39 -45z"/>
 <path d="M461 430 c-45 -44 -47 -53 -26 -90 17 -30 19 -21 3 15 -11 24 -8 29 32 70 55 56 47 60 -9 5z"/>
 <path d="M580 432 c0 -7 -22 -28 -49 -47 -27 -20 -57 -48 -67 -63 -14 -22 -10 -20 22 11 21 20 55 50 74 66 19 16 32 33 27 37 -4 4 -7 2 -7 -4z"/>
 <path d="M243 393 c4 -3 10 -3 14 0 3 4 0 7 -7 7 -7 0 -10 -3 -7 -7z"/>
 <path d="M173 378 c-46 -23 -49 -103 -4 -127 32 -18 34 -13 5 12 -41 36 -32 101 16 107 40 6 60 -2 74 -27 8 -16 15 -23 16 -17 0 20 -34 53 -60 58 -14 3 -35 0 -47 -6z"/>
 <path d="M270 385 c0 -3 2 -5 5 -5 3 0 5 2 5 5 0 3 -2 5 -5 5 -3 0 -5 -2 -5 -5z"/>
 <path d="M590 383 c-76 -28 -59 -146 19 -142 l26 2 -26 4 c-39 6 -61 35 -57 74 6 60 88 73 115 18 8 -15 13 -18 13 -8 0 31 -57 64 -90 52z"/>
 <path d="M320 345 c19 -22 39 -44 44 -50 5 -5 4 -1 -2 10 -6 11 -25 33 -44 50 l-33 30 35 -40z"/>
 <path d="M2 345 c0 -16 2 -22 5 -12 2 9 2 23 0 30 -3 6 -5 -1 -5 -18z"/>
 <path d="M798 320 c-3 -19 -9 -44 -12 -55 -4 -11 1 -5 9 14 9 18 15 43 13 55 -3 15 -5 11 -10 -14z"/>
 <path d="M424 294 c1 -35 -2 -39 -22 -38 -14 0 -19 -3 -13 -9 5 -5 17 -7 27 -5 22 4 31 48 16 74 -7 13 -9 7 -8 -22z"/>
 <path d="M11 300 c-1 -17 45 -120 54 -120 3 0 -2 14 -11 32 -9 17 -22 47 -29 67 -8 20 -14 29 -14 21z"/>
 <path d="M265 290 c-4 -11 -18 -27 -33 -35 -15 -8 -21 -14 -14 -15 15 0 62 44 62 60 0 17 -8 11 -15 -10z"/>
 <path d="M671 301 c-1 -8 -9 -24 -18 -35 -16 -20 -16 -20 6 0 13 12 21 28 18 35 -4 11 -6 11 -6 0z"/>
 <path d="M370 275 c0 -3 2 -5 5 -5 3 0 5 2 5 5 0 3 -2 5 -5 5 -3 0 -5 -2 -5 -5z"/>
 <path d="M470 265 c0 -13 21 -35 33 -35 5 0 7 5 5 11 -2 6 -7 10 -12 9 -5 -1 -13 4 -17 12 -5 7 -9 8 -9 3z m30 -20 c0 -3 -2 -5 -5 -5 -3 0 -5 2 -5 5 0 3 2 5 5 5 3 0 5 -2 5 -5z"/>
 <path d="M354 226 c-3 -9 -10 -13 -15 -10 -5 3 -9 0 -9 -5 0 -6 4 -11 9 -11 13 0 35 29 28 37 -4 3 -9 -2 -13 -11z"/>
 <path d="M770 235 c0 -3 2 -5 5 -5 3 0 5 2 5 5 0 3 -2 5 -5 5 -3 0 -5 -2 -5 -5z"/>
 <path d="M398 205 c2 -14 6 -25 8 -25 2 0 4 11 4 25 0 14 -4 25 -9 25 -4 0 -6 -11 -3 -25z"/>
 <path d="M445 219 c-4 -6 -5 -12 -2 -15 2 -3 7 2 10 11 7 17 1 20 -8 4z"/>
 <path d="M760 215 c0 -3 2 -5 5 -5 3 0 5 2 5 5 0 3 -2 5 -5 5 -3 0 -5 -2 -5 -5z"/>
 <path d="M460 205 c0 -3 2 -5 5 -5 3 0 5 2 5 5 0 3 -2 5 -5 5 -3 0 -5 -2 -5 -5z"/>
 <path d="M750 195 c0 -3 2 -5 5 -5 3 0 5 2 5 5 0 3 -2 5 -5 5 -3 0 -5 -2 -5 -5z"/>
 <path d="M685 117 c-33 -34 -46 -52 -30 -40 29 20 55 47 84 86 24 31 7 17 -54 -46z"/>
 <path d="M88 144 c12 -17 36 -42 54 -56 37 -28 74 -48 43 -24 -11 9 -42 38 -69 64 -38 36 -44 40 -28 16z"/>
 <path d="M588 45 c-15 -9 -51 -22 -80 -29 -29 -8 -43 -15 -31 -15 27 -1 130 36 138 50 8 12 5 11 -27 -6z"/>
 <path d="M210 45 c0 -3 2 -5 5 -5 3 0 5 2 5 5 0 3 -2 5 -5 5 -3 0 -5 -2 -5 -5z"/>
 <path d="M230 35 c0 -3 2 -5 5 -5 3 0 5 2 5 5 0 3 -2 5 -5 5 -3 0 -5 -2 -5 -5z"/>
 <path d="M275 15 c17 -8 41 -14 55 -14 15 0 5 6 -25 14 -62 17 -69 17 -30 0z"/>
 </g>

</svg>